<svg width="16" height="16" viewBox="0 0 16 16" fill="none" xmlns="http://www.w3.org/2000/svg">
<circle cx="8" cy="8" r="8" fill="#6B6B6B"/>
<path fill-rule="evenodd" clip-rule="evenodd" d="M8.81535 7.99981L11.0166 10.1195C11.2612 10.3641 11.2612 10.7718 11.0166 11.0164C10.772 11.261 10.3644 11.261 10.1198 11.0164L8.00006 8.89662L5.88031 11.0164C5.63572 11.261 5.22807 11.261 4.98349 11.0164C4.7389 10.7718 4.7389 10.3641 4.98349 10.1195L7.18477 7.99981L4.98349 5.88006C4.7389 5.63548 4.7389 5.22783 4.98349 4.98324C5.22807 4.73866 5.63572 4.73866 5.88031 4.98324L8.00006 7.10299L10.1198 4.98324C10.3644 4.73866 10.772 4.73866 11.0166 4.98324C11.2612 5.22783 11.2612 5.63548 11.0166 5.88006L8.81535 7.99981Z" fill="white"/>
</svg>
