<svg xmlns="http://www.w3.org/2000/svg" width="35" height="35" viewBox="0 0 35 35">
  <metadata><?xpacket begin="﻿" id="W5M0MpCehiHzreSzNTczkc9d"?>
<x:xmpmeta xmlns:x="adobe:ns:meta/" x:xmptk="Adobe XMP Core 5.6-c138 79.159824, 2016/09/14-01:09:01        ">
   <rdf:RDF xmlns:rdf="http://www.w3.org/1999/02/22-rdf-syntax-ns#">
      <rdf:Description rdf:about=""/>
   </rdf:RDF>
</x:xmpmeta>
                                                                                                    
                                                                                                    
                                                                                                    
                                                                                                    
                                                                                                    
                                                                                                    
                                                                                                    
                                                                                                    
                                                                                                    
                                                                                                    
                                                                                                    
                                                                                                    
                                                                                                    
                                                                                                    
                                                                                                    
                                                                                                    
                                                                                                    
                                                                                                    
                                                                                                    
                                                                                                    
                           
<?xpacket end="w"?></metadata>
<defs>
    <style>
      .cls-1 {
        fill: #333;
        fill-rule: evenodd;
      }
    </style>
  </defs>
  <path id="snapchat" class="cls-1" d="M896.5,9363a17.5,17.5,0,1,1,17.5-17.5A17.5,17.5,0,0,1,896.5,9363Zm9.01-13.81c-0.066-.01-0.133-0.03-0.2-0.04a3.9,3.9,0,0,1-1.719-.94,5.943,5.943,0,0,1-1.335-1.81,3.85,3.85,0,0,1-.2-0.53,0.325,0.325,0,0,1,.113-0.36,1.251,1.251,0,0,1,.244-0.16c0.22-.09.446-0.17,0.669-0.26a2.3,2.3,0,0,0,.863-0.52,0.86,0.86,0,0,0,.118-1.1,1.05,1.05,0,0,0-.531-0.4,1.083,1.083,0,0,0-.9.02c-0.136.06-.279,0.11-0.422,0.16a0.462,0.462,0,0,1-.285.02,0.151,0.151,0,0,1,0-.03c0.021-.39.044-0.77,0.062-1.16a11.873,11.873,0,0,0-.038-1.95,3.982,3.982,0,0,0-.335-1.23,4.859,4.859,0,0,0-2.154-2.34,4.958,4.958,0,0,0-2.089-.57,5.988,5.988,0,0,0-1.738.15,4.644,4.644,0,0,0-2.664,1.74,4.912,4.912,0,0,0-.781,1.46,5.444,5.444,0,0,0-.215,1.55c-0.019.67,0.014,1.35,0.059,2.02,0.008,0.12.012,0.24,0.018,0.36a0.334,0.334,0,0,1-.094.01,3.435,3.435,0,0,1-.447-0.09c-0.137-.04-0.265-0.12-0.4-0.15a1.075,1.075,0,0,0-1.124.35,0.821,0.821,0,0,0-.015,1.1,1.689,1.689,0,0,0,.516.41,4.206,4.206,0,0,0,.75.31,1.877,1.877,0,0,1,.543.27,0.39,0.39,0,0,1,.141.42,1.536,1.536,0,0,1-.059.19,5.949,5.949,0,0,1-1.538,2.18,3.82,3.82,0,0,1-1.833.92,0.522,0.522,0,0,0-.38.23,0.689,0.689,0,0,0,0,.78,1.32,1.32,0,0,0,.525.46,4.127,4.127,0,0,0,1.016.37c0.23,0.05.462,0.1,0.694,0.14a0.088,0.088,0,0,1,.079.08c0.022,0.12.048,0.23,0.074,0.34s0.043,0.2.068,0.3a0.629,0.629,0,0,0,.76.52c0.191-.03.38-0.07,0.57-0.1a3.449,3.449,0,0,1,1.281,0,1.838,1.838,0,0,1,.735.33c0.336,0.24.667,0.49,1,.73a3.681,3.681,0,0,0,2.631.61,3.344,3.344,0,0,0,1.386-.53c0.334-.22.655-0.46,0.982-0.69a2.272,2.272,0,0,1,.974-0.47,3.821,3.821,0,0,1,1.068-.01c0.238,0.04.474,0.09,0.712,0.12a0.632,0.632,0,0,0,.758-0.53c0.047-.21.1-0.42,0.141-0.62a0.087,0.087,0,0,1,.072-0.08c0.331-.07.664-0.14,0.991-0.22a2.821,2.821,0,0,0,.946-0.43,1.024,1.024,0,0,0,.369-0.46A0.621,0.621,0,0,0,905.51,9349.19Z" transform="translate(-879 -9328)"/>
</svg>
