<svg xmlns="http://www.w3.org/2000/svg" width="35" height="35" viewBox="0 0 35 35">
  <metadata><?xpacket begin="﻿" id="W5M0MpCehiHzreSzNTczkc9d"?>
<x:xmpmeta xmlns:x="adobe:ns:meta/" x:xmptk="Adobe XMP Core 5.6-c138 79.159824, 2016/09/14-01:09:01        ">
   <rdf:RDF xmlns:rdf="http://www.w3.org/1999/02/22-rdf-syntax-ns#">
      <rdf:Description rdf:about=""/>
   </rdf:RDF>
</x:xmpmeta>
                                                                                                    
                                                                                                    
                                                                                                    
                                                                                                    
                                                                                                    
                                                                                                    
                                                                                                    
                                                                                                    
                                                                                                    
                                                                                                    
                                                                                                    
                                                                                                    
                                                                                                    
                                                                                                    
                                                                                                    
                                                                                                    
                                                                                                    
                                                                                                    
                                                                                                    
                                                                                                    
                           
<?xpacket end="w"?></metadata>
<defs>
    <style>
      .cls-1 {
        fill: #333;
        fill-rule: evenodd;
      }
    </style>
  </defs>
  <path id="spiceworks" class="cls-1" d="M1233.5,1273a17.5,17.5,0,1,1,17.5-17.5A17.5,17.5,0,0,1,1233.5,1273Zm-0.94-11a4.326,4.326,0,0,0,1.39,1.27,5.448,5.448,0,0,0,.76.39,0.142,0.142,0,0,0,.06.02,3.292,3.292,0,0,0,.6.15c0.31,0.05.63,0.07,0.94,0.12a2.279,2.279,0,0,1,.8.26,2.933,2.933,0,0,1,.84.73c0.04,0.05.04,0.05,0.06,0a8.663,8.663,0,0,0,.34-1.13,5.242,5.242,0,0,0,.1-1.58c-0.01-.06-0.03-0.07-0.08-0.05a4.723,4.723,0,0,1-2.18.13,5.734,5.734,0,0,1-.7-0.13,0.227,0.227,0,0,0-.04-0.01,5.446,5.446,0,0,1-1.13-.51,3.233,3.233,0,0,1-.71-0.57,2.729,2.729,0,0,1-.4-0.6,0.137,0.137,0,0,0-.1-0.08,2.492,2.492,0,0,1-.76-0.39,0.934,0.934,0,0,1-.28-0.28,2.886,2.886,0,0,0-.04.29A3.034,3.034,0,0,0,1232.56,1262Zm-3.67-4.85a8.913,8.913,0,0,0,1.46.14,4.538,4.538,0,0,0,1.04-.11,3.637,3.637,0,0,0,1.22-.47c0.05-.04.05-0.04,0-0.08a2.762,2.762,0,0,1-.92-0.88,3.077,3.077,0,0,1-.38-2.59c0.02-.07.02-0.07-0.04-0.05a2.713,2.713,0,0,0-1.22.64,3.019,3.019,0,0,0-.76,1.1,5.536,5.536,0,0,0-.45,2.24C1228.84,1257.13,1228.85,1257.15,1228.89,1257.15Zm-2.85-1.03c0.22,0.12.45,0.22,0.67,0.32a9.605,9.605,0,0,0,1.73.61c0.06,0.02.06,0.02,0.06-.05,0.01-.23.02-0.47,0.05-0.7a5.322,5.322,0,0,1,.74-2.2c0.01-.02.03-0.03,0.04-0.05a3.118,3.118,0,0,1,1.22-1.06,3.438,3.438,0,0,1,.89-0.29,0.075,0.075,0,0,0,.07-0.05,2.261,2.261,0,0,1,.16-0.26,2.581,2.581,0,0,1,1.15-1.02,0.016,0.016,0,0,0,.02-0.02,0.137,0.137,0,0,0-.08-0.05,2.063,2.063,0,0,0-.35-0.12,3.326,3.326,0,0,0-.99-0.09,3.6,3.6,0,0,0-1.04.18,4.708,4.708,0,0,0-2.21,1.64,0.151,0.151,0,0,0-.04.04c-0.07.12-.15,0.23-0.22,0.35a13.07,13.07,0,0,0-.6,1.18,4.032,4.032,0,0,1-.6.97,3.526,3.526,0,0,1-.68.6C1225.98,1256.09,1225.98,1256.09,1226.04,1256.12Zm1.28-6.26a4.37,4.37,0,0,0-.94.59c-0.05.05-.05,0.05,0.01,0.07,0.08,0.05.17,0.1,0.26,0.15a2.075,2.075,0,0,1,.76.74c0.1,0.19.18,0.39,0.27,0.58s0.17,0.37.26,0.56c0.02,0.03.04,0.04,0.07,0a1.738,1.738,0,0,1,.13-0.15,4.979,4.979,0,0,1,1.4-1.15,3.793,3.793,0,0,1,.83-0.36,0.035,0.035,0,0,0,.02-0.01,4.981,4.981,0,0,1,1.15-.16,4.036,4.036,0,0,1,.98.11,2.628,2.628,0,0,1,.68.31,0.134,0.134,0,0,0,.09.01,2.84,2.84,0,0,1,.71-0.11,3.657,3.657,0,0,1,.66.04,0.085,0.085,0,0,0,.07,0,0.1,0.1,0,0,0-.02-0.07,2.178,2.178,0,0,0-.35-0.54,4.236,4.236,0,0,0-1.48-1.04,5.344,5.344,0,0,0-.96-0.3,4.426,4.426,0,0,0-1.74-.06,6.665,6.665,0,0,0-.76.12A8.291,8.291,0,0,0,1227.32,1249.86Zm8.59-.24a4.621,4.621,0,0,0-1.03-1.25,4.93,4.93,0,0,0-.8-0.58,3.107,3.107,0,0,0-.41-0.2c-0.31-.12-0.63-0.19-0.95-0.28a2.643,2.643,0,0,1-.88-0.38,2.915,2.915,0,0,1-.81-0.9c-0.03-.06-0.03-0.06-0.06,0a6.969,6.969,0,0,0-.35.73,5.169,5.169,0,0,0-.44,1.86c0,0.09,0,.09.08,0.08a4.359,4.359,0,0,1,.72-0.05,4.829,4.829,0,0,1,1.19.18,6.293,6.293,0,0,1,.93.3,0.219,0.219,0,0,0,.05.03,5.008,5.008,0,0,1,1.13.74,2.6,2.6,0,0,1,.8,1.13,0.356,0.356,0,0,0,.23.26,0.037,0.037,0,0,1,.03.01,2.027,2.027,0,0,1,.81.73h0.01a0.257,0.257,0,0,0,.02-0.05A3.076,3.076,0,0,0,1235.91,1249.62Zm2.72,4.05a0.05,0.05,0,0,0-.06-0.06c-0.31,0-.62,0-0.94.02a6.06,6.06,0,0,0-1.19.21,4.09,4.09,0,0,0-1.36.66c-0.06.05-.11,0.09-0.17,0.15a2.847,2.847,0,0,1,1.47,1.33,3.091,3.091,0,0,1,.33,2.01,0.417,0.417,0,0,0,.06-0.02,2.769,2.769,0,0,0,1.59-1.64A5.237,5.237,0,0,0,1238.63,1253.67Zm2.91,0.54c-0.21-.07-0.42-0.13-0.63-0.19a10.109,10.109,0,0,0-1.88-.38c-0.04,0-.06,0-0.05.05,0.02,0.15.03,0.29,0.04,0.43a6.1,6.1,0,0,1-.03,1.13,4.905,4.905,0,0,1-.41,1.45,0.076,0.076,0,0,1-.02.04,3.178,3.178,0,0,1-1.11,1.27,3.125,3.125,0,0,1-.78.38,0.135,0.135,0,0,0-.09.09,2.518,2.518,0,0,1-.15.34,2.677,2.677,0,0,1-.91,1.06l-0.09.06a0.442,0.442,0,0,0,.15.05,2.487,2.487,0,0,0,.98.05,3.67,3.67,0,0,0,1.37-.4,4.393,4.393,0,0,0,1.27-1.01,5.5,5.5,0,0,0,.66-0.92,2.6,2.6,0,0,0,.16-0.34,13.467,13.467,0,0,0,.49-1.39,3.745,3.745,0,0,1,.45-1,4.033,4.033,0,0,1,.6-0.71C1241.6,1254.23,1241.6,1254.22,1241.54,1254.21Zm0.4,5.59c-0.1-.04-0.19-0.07-0.29-0.11a2,2,0,0,1-.99-0.85c-0.16-.26-0.32-0.53-0.51-0.78-0.06-.09-0.05-0.07-0.1.01a6.171,6.171,0,0,1-1.09,1.3,5.022,5.022,0,0,1-.99.66h-0.02a4.151,4.151,0,0,1-1.28.36,3.247,3.247,0,0,1-.88.01,2.571,2.571,0,0,1-.67-0.19,0.1,0.1,0,0,0-.09,0,3.055,3.055,0,0,1-1.07.26c-0.1.01-.21,0.01-0.31,0.01-0.04,0-.05.01-0.03,0.04l0.06,0.09a2.5,2.5,0,0,0,.79.73,4.37,4.37,0,0,0,1.66.6,5.37,5.37,0,0,0,1.55.03,4.317,4.317,0,0,0,.71-0.17c0.02-.01.05-0.01,0.08-0.02a8.213,8.213,0,0,0,.84-0.27,9.27,9.27,0,0,0,1.83-.93,4.54,4.54,0,0,0,.82-0.71C1242,1259.83,1242,1259.82,1241.94,1259.8Z" transform="translate(-1216 -1238)"/>
</svg>
