<svg xmlns="http://www.w3.org/2000/svg" width="20" height="20" viewBox="0 0 20 20">
  <defs>
    <style>
      .cls-1 {
        fill: #a50034;
        fill-rule: evenodd;
      }
    </style>
  </defs>
  <path id="download" class="cls-1" d="M1043,1183h-16a2.006,2.006,0,0,1-2-2v-3h1.5v3a0.508,0.508,0,0,0,.5.5h16a0.508,0.508,0,0,0,.5-0.5v-3h1.5v3A2.006,2.006,0,0,1,1043,1183Zm-7.63-4.27a0.785,0.785,0,0,1-1.09,0l-4.12-4.04a0.761,0.761,0,0,1,0-1.08,0.785,0.785,0,0,1,1.1,0l2.79,2.74v-9.59a0.775,0.775,0,0,1,1.55,0v9.59l2.79-2.74a0.785,0.785,0,0,1,1.1,0,0.76,0.76,0,0,1,0,1.08Z" transform="translate(-1025 -1164.5)"/>
</svg>
