<?xml version="1.0" encoding="utf-8"?>
<!-- Generator: Adobe Illustrator 26.1.0, SVG Export Plug-In . SVG Version: 6.00 Build 0)  -->
<svg version="1.1" id="레이어_1" xmlns="http://www.w3.org/2000/svg" xmlns:xlink="http://www.w3.org/1999/xlink" x="0px"
	 y="0px" viewBox="0 0 20 20" style="enable-background:new 0 0 20 20;" xml:space="preserve">
<style type="text/css">
	.st0{fill-rule:evenodd;clip-rule:evenodd;fill:#1A1A1A;}
	.st1{fill-rule:evenodd;clip-rule:evenodd;fill:#1A1A1A;stroke:#1A1A1A;stroke-width:0.5;stroke-miterlimit:10;}
</style>
<path id="feedback" class="st0" d="M7,15H4v-2h3V15z M4,5h8v2H4V5z M9,11H4V9h5V11z M9.9,20H2c-1.1,0-2-0.9-2-2V2c0-1.1,0.9-2,2-2
	h12c1.1,0,2,0.9,2,2l0,6.4l-1.8,0l0-5.7c0-0.6-0.4-1-1-1l-10.4,0c-0.6,0-1,0.4-1,1l0,14.7c0,0.6,0.4,1,1,1h7"/>
<path id="recently_viewed" class="st1" d="M14.6,19.8c-2.8,0-5.1-2.3-5.1-5.1s2.3-5.1,5.1-5.1s5.1,2.3,5.1,5.1S17.5,19.8,14.6,19.8z
	 M14.6,10.6c-2.3,0-4.1,1.8-4.1,4.1s1.8,4.1,4.1,4.1s4.1-1.8,4.1-4.1c0.1-2.2-1.6-4-3.8-4.1C14.8,10.5,14.7,10.5,14.6,10.6z
	 M15.8,16.5l-1.5-1.3c-0.1-0.1-0.2-0.2-0.1-0.4v-2.3c0-0.3,0.3-0.5,0.6-0.5c0.2,0,0.4,0.2,0.5,0.5v2.1l1.4,1.2
	c0.2,0.2,0.2,0.4,0,0.6c0,0,0,0,0,0C16.3,16.7,16,16.7,15.8,16.5z"/>
</svg>
