<svg id="레이어_1" data-name="레이어 1" xmlns="http://www.w3.org/2000/svg" viewBox="0 0 56 56"><defs><style>.cls-1{fill:#a50034;fill-rule:evenodd;}</style></defs><path id="Register_Your_Product" data-name="Register Your Product" class="cls-1" d="M49,60A11,11,0,1,1,60,49,11,11,0,0,1,49,60Zm0-20a9,9,0,1,0,9,9A9,9,0,0,0,49,40ZM24,29a3,3,0,0,1,0-6H34a3,3,0,0,1,0,6Zm11-3a.94.94,0,0,0-1-1H24a1,1,0,0,0,0,2H34A.94.94,0,0,0,35,26Zm17-7H6V52H36l1,2H5a.94.94,0,0,1-1-1V18a.94.94,0,0,1,1-1H4L12,5a.94.94,0,0,1,1-1H44a.94.94,0,0,1,1,1l9,12H53a.94.94,0,0,1,1,1V37l-2-1ZM28,6H14L7,17H28ZM43,6H30V17H51ZM55,50H50v5H48V50H43V48h5V43h2v5h5Z" transform="translate(-4 -4)"/></svg>