<svg version="1.1" id="레이어_1" xmlns="http://www.w3.org/2000/svg" xmlns:xlink="http://www.w3.org/1999/xlink" x="0px"
	 y="0px" width="35px" height="35px" viewBox="0 0 35 35" style="enable-background:new 0 0 35 35;" xml:space="preserve">
<style type="text/css">
	.st0{fill-rule:evenodd;clip-rule:evenodd;fill:#333333;}
</style>
<path class="st0" d="M17.5,0C7.8,0,0,7.8,0,17.5S7.8,35,17.5,35S35,27.2,35,17.5S27.2,0,17.5,0z M19.7,21.8L16.4,25
	c-1.8,1.8-4.7,1.8-6.5,0c-1.8-1.8-1.8-4.7,0-6.5l1.5-1.5c0.2-0.2,0.5-0.3,0.8-0.3c0.3,0,0.6,0.1,0.8,0.3c0.4,0.4,0.4,1.1,0,1.5
	l-1.5,1.5c-0.4,0.4-0.7,1.1-0.7,1.7c0,1.3,1.1,2.4,2.4,2.4c0.6,0,1.2-0.2,1.7-0.7l3.2-3.2c0.5-0.4,0.7-1.1,0.7-1.7
	c0-0.8-0.4-1.6-1.1-2c-0.2-0.2-0.4-0.4-0.5-0.7c-0.1-0.3,0-0.6,0.1-0.8c0.2-0.2,0.4-0.4,0.7-0.5c0.3-0.1,0.6,0,0.8,0.1
	c0.3,0.2,0.5,0.4,0.7,0.6C21.4,17.1,21.4,20,19.7,21.8z M25,16.4L23.5,18c-0.2,0.2-0.5,0.3-0.8,0.3c-0.3,0-0.6-0.1-0.8-0.3
	c-0.4-0.4-0.4-1.1,0-1.5l1.5-1.5c0.4-0.4,0.7-1.1,0.7-1.7c0-1.3-1.1-2.4-2.4-2.4c-0.6,0-1.2,0.2-1.7,0.7l-3.2,3.2
	c-0.5,0.4-0.7,1.1-0.7,1.7c0,0.8,0.4,1.6,1.1,2c0.2,0.2,0.4,0.4,0.5,0.7c0.1,0.3,0,0.6-0.1,0.8c-0.3,0.5-1,0.6-1.5,0.3
	c-0.3-0.2-0.5-0.4-0.8-0.6c-1.8-1.8-1.8-4.7,0-6.5l3.2-3.2c0.9-0.9,2-1.3,3.2-1.3c1.2,0,2.4,0.5,3.2,1.3
	C26.8,11.8,26.8,14.7,25,16.4z"/>
</svg>
