<?xml version="1.0" encoding="utf-8"?>
<!-- Generator: Adobe Illustrator 24.2.3, SVG Export Plug-In . SVG Version: 6.00 Build 0)  -->
<svg version="1.1" id="레이어_1" xmlns="http://www.w3.org/2000/svg" xmlns:xlink="http://www.w3.org/1999/xlink" x="0px"
	 y="0px" viewBox="0 0 54 54" style="enable-background:new 0 0 54 54;" xml:space="preserve">
<style type="text/css">
	.st0{fill:#FFFFFF;}
</style>
<g>
	<g>
		<path class="st0" d="M42.4,9.6v34.7H12.1V9.6H42.4 M42.4,5.3H12.1c-2.4,0-4.3,2-4.3,4.3v34.7c0,2.4,2,4.3,4.3,4.3h30.4
			c2.4,0,4.3-2,4.3-4.3V9.6C46.8,7.3,44.8,5.3,42.4,5.3L42.4,5.3z"/>
	</g>
	<rect x="16.4" y="14" class="st0" width="21.7" height="8.7"/>
	<rect x="33.7" y="27" class="st0" width="4.3" height="13"/>
	<rect x="25.1" y="27" class="st0" width="4.3" height="4.3"/>
	<rect x="16.4" y="27" class="st0" width="4.3" height="4.3"/>
	<rect x="25.1" y="35.7" class="st0" width="4.3" height="4.3"/>
	<rect x="16.4" y="35.7" class="st0" width="4.3" height="4.3"/>
</g>
</svg>
