<?xml version="1.0" encoding="utf-8"?>
<!-- Generator: Adobe Illustrator 25.4.1, SVG Export Plug-In . SVG Version: 6.00 Build 0)  -->
<svg version="1.1" id="Layer_1" xmlns="http://www.w3.org/2000/svg" xmlns:xlink="http://www.w3.org/1999/xlink" x="0px" y="0px"
	 viewBox="0 0 132.7 132.7" style="enable-background:new 0 0 132.7 132.7;" xml:space="preserve">
<style type="text/css">
	.st0{fill:#303030;}
	.st1{fill:#FFFFFF;}
	.st2{fill:#D8D8D8;}
</style>
<g>
	<g>
		<g>
			<g>
				<path class="st0" d="M108.5,44.1H14.9V27h93.6V44.1z M16.9,42.1h89.6V29H16.9V42.1z"/>
			</g>
			<g>
				<rect x="15.9" y="43.3" class="st1" width="91.6" height="55.9"/>
				<path class="st0" d="M108.5,100.2H14.9V42.3h93.6V100.2z M16.9,98.2h89.6V44.3H16.9V98.2z"/>
			</g>
		</g>
	</g>
</g>
<g>
	<rect x="96.1" y="34" class="st0" width="3.3" height="2.4"/>
</g>
<g>
	<rect x="86.8" y="34" class="st0" width="3.3" height="2.4"/>
</g>
<g>
	<rect x="77.2" y="34" class="st0" width="3.3" height="2.4"/>
</g>
<g>
	<rect x="80.6" y="64.8" class="st1" width="46.9" height="49"/>
</g>
<g>
	<g>
		<path class="st1" d="M89.8,99.9c-1.9,0-2.8-1.4-1.8-3.1l13.7-23.6c1-1.7,2.6-1.7,3.5,0l13.7,23.6c1,1.7,0.2,3.1-1.8,3.1H89.8z"/>
		<path class="st0" d="M117.1,100.9H89.8c-1.3,0-2.3-0.5-2.9-1.4c-0.5-0.9-0.5-2.1,0.2-3.2l13.7-23.6c0.6-1.1,1.6-1.8,2.6-1.8
			c1,0,2,0.7,2.6,1.8l13.7,23.5c0.7,1.2,0.7,2.3,0.2,3.2C119.4,100.4,118.4,100.9,117.1,100.9z M103.5,73c-0.3,0-0.6,0.3-0.9,0.8
			L88.9,97.3c-0.3,0.5-0.3,0.9-0.2,1.2s0.6,0.4,1.1,0.4h27.2c0.6,0,1-0.2,1.2-0.4c0.1-0.3,0.1-0.7-0.2-1.2l-13.7-23.5
			C104.1,73.3,103.7,73,103.5,73z"/>
	</g>
	<g>
		<path class="st0" d="M105,82.2h-3l-0.1,7.5h3L105,82.2z M102,92.6v2.6h3v-2.6H102z"/>
	</g>
</g>
<g>
	<path class="st2" d="M75.5,62.9c4.6-10.6-4.9-9-5.5-8.9c-2,0.4-3.9,1.1-5.6,1.8c-6.6-0.4-12.5,4.3-14,10.6c3.4-3.9,5.8-5.5,7.2-6
		c-4.2,3.8-8.3,8.8-9.8,14.3c-3.9,13.9,8.2,8.1,9.9,7.2c1.8,0.9,3.9,1.4,6,1.4c5.9,0,10.9-3.9,12.8-9.1h-7.1c-1.1,1.8-3.1,3-5.4,3
		c-3.4,0-6.1-2.6-6.1-5.9h19.4C77.5,68.5,76.9,65.5,75.5,62.9z M74.8,56.1c1.2,0.8,2.2,2,0.5,6.3c-1.5-2.5-3.9-4.5-6.6-5.6
		C69.8,56.2,73,54.9,74.8,56.1z M49.9,82c-1-1-1.1-3.4,1-7.9c1.1,3.1,3.1,5.7,5.9,7.3C55.4,82.3,51.9,84,49.9,82z M57.8,67.7
		c0.1-3.1,2.8-5.7,6.1-5.7s6,2.6,6.1,5.7H57.8z"/>
</g>
</svg>
