<?xml version="1.0" encoding="utf-8"?>
<!-- Generator: Adobe Illustrator 26.0.1, SVG Export Plug-In . SVG Version: 6.00 Build 0)  -->
<svg version="1.1" id="Layer_1" xmlns="http://www.w3.org/2000/svg" xmlns:xlink="http://www.w3.org/1999/xlink" x="0px" y="0px"
	 viewBox="0 0 576 420" style="enable-background:new 0 0 576 420;" xml:space="preserve">
<style type="text/css">
	.st0{fill:#FFFFFF;}
</style>
<path class="st0" d="M571.9,107.5c0,21.8-17.6,39.4-39.4,39.4c-0.2,0-0.4-0.1-0.7-0.1l-49.7,242.4c-2.7,14.9-15.7,25.9-31,25.9
	H125.6c-15.2,0-28.3-10.9-31-25.9L44.9,146.8c-0.2,0-0.5,0.1-1.6,0.1c-21.7,0-39.4-17.7-39.4-39.4s18.5-39.4,39.4-39.4
	s39.4,17.7,39.4,39.4c0,8.9-3.5,16.6-8.4,23.2l88.2,70.7c15.7,12.5,38.9,7.4,47.9-10.5l56.7-113.5c-11.1-6.9-19-18.8-19-32.9
	c0-21.8,18.5-39.4,40.3-39.4s38.5,17.7,38.5,39.4c0,14.1-7.8,26-19,32.9l56.7,113.5c9,18,32.2,23.1,47.9,10.5l88.2-70.7
	c-4.1-6.6-7.5-15.3-7.5-23.2c0-21.8,17.6-39.4,39.4-39.4C554.3,68.1,571.9,85.7,571.9,107.5z"/>
</svg>
